G04 EasyPC Gerber Version 21.0.3 Build 4286 *
G04 #@! TF.Part,Single*
G04 #@! TF.FileFunction,Copper,L1,Top *
G04 #@! TF.FilePolarity,Positive *
%FSLAX24Y24*%
%MOIN*%
G04 #@! TA.AperFunction,SMDPad*
%ADD23R,0.02362X0.05807*%
%ADD25R,0.02559X0.03937*%
%ADD29R,0.04724X0.11811*%
%ADD73R,0.06969X0.16024*%
G04 #@! TD.AperFunction*
%ADD70C,0.00400*%
%ADD13C,0.00500*%
%ADD16C,0.01000*%
%ADD75C,0.01181*%
%ADD77C,0.01496*%
%ADD74C,0.01500*%
G04 #@! TA.AperFunction,WasherPad*
%ADD21C,0.02362*%
G04 #@! TD.AperFunction*
%ADD80C,0.02500*%
G04 #@! TA.AperFunction,ViaPad*
%ADD79C,0.04724*%
%ADD78C,0.04800*%
G04 #@! TD.AperFunction*
%ADD76C,0.05000*%
G04 #@! TA.AperFunction,ComponentPad*
%ADD11C,0.06693*%
G04 #@! TA.AperFunction,WasherPad*
%ADD20C,0.09055*%
%ADD10C,0.27559*%
G04 #@! TA.AperFunction,SMDPad*
%ADD22R,0.05807X0.02362*%
%ADD24R,0.03937X0.02559*%
%ADD26R,0.03740X0.03346*%
%ADD28R,0.05906X0.04724*%
%ADD27R,0.11811X0.04724*%
%ADD72R,0.16024X0.06969*%
G04 #@! TA.AperFunction,WasherPad*
%ADD71R,0.19685X0.11811*%
X0Y0D02*
D02*
D10*
X40525Y6025D03*
Y9525D03*
D02*
D11*
X7525Y12025D03*
X8525Y11025D03*
Y12025D03*
X9525Y10025D03*
Y11025D03*
X10525Y9025D03*
Y10025D03*
X11025Y15525D03*
X11525Y8025D03*
Y9025D03*
X12025Y14525D03*
Y15525D03*
X12525Y7025D03*
Y8025D03*
X13025Y13525D03*
Y14525D03*
X13525Y7025D03*
X14025Y12525D03*
Y13525D03*
X14525Y19025D03*
X15025Y11525D03*
Y12525D03*
X15525Y18025D03*
Y19025D03*
X16025Y10525D03*
Y11525D03*
X16525Y17025D03*
Y18025D03*
X17025Y10525D03*
X17525Y16025D03*
Y17025D03*
X18525Y15025D03*
Y16025D03*
X19525Y14025D03*
Y15025D03*
X20525Y14025D03*
X21525Y4525D03*
Y5525D03*
X22525Y4525D03*
Y5525D03*
X23525Y4525D03*
Y5525D03*
X24025Y17525D03*
Y18525D03*
X24525Y4525D03*
Y5525D03*
X25025Y17525D03*
Y18525D03*
X25525Y4525D03*
Y5525D03*
X26025Y17525D03*
Y18525D03*
X26525Y4525D03*
Y5525D03*
X27025Y17525D03*
Y18525D03*
X27525Y4525D03*
Y5525D03*
X28025Y17525D03*
Y18525D03*
X28525Y4525D03*
Y5525D03*
X29525Y4525D03*
Y5525D03*
X29875Y7245D03*
Y9245D03*
X30525Y4525D03*
Y5525D03*
X31875Y7245D03*
Y9245D03*
X33525Y6525D03*
X33533Y19025D03*
X34517D03*
X34525Y6525D03*
X35525D03*
X36525D03*
X37033Y19025D03*
X37525Y6525D03*
X38017Y19025D03*
D02*
D13*
X2940Y21468D02*
Y2283D01*
X41810*
Y5320*
G75*
G02X39059Y6025I-1285J705*
G01*
G75*
G02X39631Y7187I1466J0*
G01*
X36830*
G75*
G02X36591Y7286J338*
G01*
X35812Y8065*
X35747*
G75*
G02X35566Y8118J338*
G01*
X35531*
Y8143*
G75*
G02X35409Y8403I216J260*
G01*
Y8616*
X35330*
Y8141*
X34944*
Y8616*
X34830*
G75*
G02X34492Y8954J338*
G01*
Y9525*
G75*
G02X34614Y9785I338*
G01*
Y9810*
X34648*
G75*
G02X34830Y9863I182J-285*
G01*
X36254*
Y10805*
X36152*
Y11678*
X37930*
Y11589*
X38570*
Y11428*
X39698*
X40362Y12092*
Y17958*
X39458Y18862*
X38407*
G75*
G02X37594Y19025I-390J163*
G01*
G75*
G02X38407Y19188I423*
G01*
X39525*
G75*
G02X39640Y19140I0J-163*
G01*
X40640Y18140*
G75*
G02X40688Y18025I-115J-115*
G01*
Y12025*
G75*
G02X40640Y11910I-163*
G01*
X39880Y11150*
G75*
G02X39765Y11102I-115J115*
G01*
X38570*
Y10941*
X37930*
Y10805*
X36930*
Y9525*
G75*
G02X36592Y9187I-338*
G01*
X35992*
G75*
G02X36085Y8954I-245J-233*
G01*
Y8714*
G75*
G02X36191Y8642I-133J-311*
G01*
X36970Y7863*
X40078*
G75*
G02X40317Y7764J-338*
G01*
X40591Y7489*
G75*
G02X41810Y6730I-67J-1464*
G01*
Y8869*
G75*
G02X39082Y9525I-1285J656*
G01*
G75*
G02X41810Y10181I1443*
G01*
Y21468*
X2940*
X11102Y8025D02*
G75*
G02X11948I423D01*
G01*
G75*
G02X11443Y7610I-423*
G01*
X10243Y6410*
G75*
G02X10127Y6362I-115J115*
G01*
X5597*
Y5846*
X3453*
Y7204*
X5597*
Y6688*
X10060*
X11169Y7797*
G75*
G02X11102Y8025I356J228*
G01*
X3484Y3025D02*
G75*
G02X4566I541D01*
G01*
G75*
G02X3484I-541*
G01*
X9102Y10025D02*
G75*
G02X9948I423D01*
G01*
G75*
G02X9383Y9627I-423*
G01*
X8168Y8399*
G75*
G02X8041Y8346I-127J126*
G01*
X5597*
Y7846*
X3453*
Y9204*
X5597*
Y8704*
X7966*
X9129Y9879*
G75*
G02X9102Y10025I396J147*
G01*
X14602Y12525D02*
G75*
G02X15448I423D01*
G01*
G75*
G02X14967Y12106I-423*
G01*
X14692Y11831*
G75*
G02X14576Y11783I-115J115*
G01*
X12253*
G75*
G02X12090Y11946J163*
G01*
Y12194*
X11517Y12768*
X7478*
X6189Y11478*
G75*
G02X6033Y11362I-156J47*
G01*
X5597*
Y10846*
X3453*
Y12204*
X5597*
Y11688*
X5938*
X7295Y13046*
G75*
G02X7411Y13094I115J-115*
G01*
X11584*
G75*
G02X11699Y13046J-163*
G01*
X12368Y12377*
G75*
G02X12416Y12261I-115J-115*
G01*
Y12109*
X13949*
G75*
G02X13602Y12525I76J416*
G01*
G75*
G02X14448I423*
G01*
G75*
G02X14101Y12109I-423*
G01*
X14509*
X14680Y12281*
G75*
G02X14602Y12525I345J244*
G01*
Y11525D02*
G75*
G02X15448I423D01*
G01*
G75*
G02X14602I-423*
G01*
X33456Y12582D02*
X34329D01*
Y10804*
X33456*
Y10906*
X32807*
Y11167*
X32310*
Y11114*
X31740*
Y11167*
X31688*
Y10337*
X32568*
G75*
G02X32731Y10175J-163*
G01*
G75*
G02Y10172I-161J-1*
G01*
X32652Y3796*
Y3525*
Y3525*
Y3525*
G75*
G02X32489Y3362I-163*
G01*
X32427*
G75*
G02X32317Y3391I-16J163*
G01*
X31531Y3362*
G75*
G02X31525Y3362I-6J164*
G01*
X21179*
G75*
G02X21063Y3410I0J163*
G01*
X20563Y3910*
G75*
G02X20516Y4025I115J115*
G01*
Y4698*
G75*
G02X20563Y4813I163*
G01*
X21129Y5378*
G75*
G02X21102Y5525I396J147*
G01*
G75*
G02X21948I423*
G01*
G75*
G02X21351Y5140I-423*
G01*
X20841Y4631*
Y4092*
X21246Y3688*
X31522*
X32297Y3716*
G75*
G02X32327Y3739I114J-116*
G01*
Y3797*
G75*
G02Y3799I161J1*
G01*
X32404Y10012*
X31525*
G75*
G02X31362Y10175J163*
G01*
Y13004*
X31240*
Y13007*
X31167*
Y12232*
G75*
G02X30954Y12019I-213*
G01*
X30767*
Y12016*
X30197*
Y12020*
X30064*
G75*
G02X30097Y11993I-94J-152*
G01*
X30520Y11562*
X30767*
Y11484*
X30776*
G75*
G02X30874Y11443I0J-138*
G01*
X31193Y11124*
G75*
G02X31234Y11027I-98J-98*
G01*
Y9785*
X31530Y9489*
G75*
G02X32298Y9245I345J-244*
G01*
G75*
G02X31706Y8858I-423J0*
G01*
X30635Y7788*
Y6946*
G75*
G02X30590Y6837I-154*
G01*
X29685Y5932*
G75*
G02X29673Y5921I-109J109*
G01*
G75*
G02X29948Y5525I-148J-396*
G01*
G75*
G02X29102I-423*
G01*
G75*
G02X29307Y5887I423*
G01*
X29090*
X28909Y5701*
G75*
G02X28948Y5525I-384J-176*
G01*
G75*
G02X28102I-423*
G01*
G75*
G02X28689Y5915I423*
G01*
X28914Y6148*
G75*
G02X29025Y6194I111J-107*
G01*
X29513*
X30328Y7010*
Y7852*
G75*
G02X30373Y7961I154*
G01*
X31488Y9076*
G75*
G02X31460Y9169I387J170*
G01*
X30998Y9630*
G75*
G02X30958Y9728I98J98*
G01*
Y10969*
X30767Y11161*
Y11130*
X30197*
Y11381*
X29895Y11689*
X28985*
Y11385*
X29340*
G75*
G02X29487Y11238I0J-147*
G01*
G75*
G02Y11236I-146J-1*
G01*
X29466Y9349*
G75*
G02X30298Y9245I410J-103*
G01*
G75*
G02X29463Y9152I-423*
G01*
X29448Y7771*
G75*
G02X29300Y7626I-147J2*
G01*
X26881*
X26180Y6925*
Y5769*
G75*
G02X26948Y5525I345J-244*
G01*
G75*
G02X26180Y5281I-423*
G01*
Y5017*
G75*
G02X26033Y4870I-147*
G01*
X25769*
G75*
G02X25948Y4525I-244J-345*
G01*
G75*
G02X25102I-423*
G01*
G75*
G02X25281Y4870I423*
G01*
X24769*
G75*
G02X24948Y4525I-244J-345*
G01*
G75*
G02X24102I-423*
G01*
G75*
G02X24281Y4870I423*
G01*
X23986*
G75*
G02X23881Y4913I0J147*
G01*
X23668Y5127*
G75*
G02X23102Y5525I-143J398*
G01*
G75*
G02X23948I423*
G01*
G75*
G02X23893Y5318I-423J0*
G01*
X24047Y5164*
X24305*
G75*
G02X24362Y5915I220J361*
G01*
Y11238*
G75*
G02X24466Y11390I163*
G01*
X24211*
X24105Y11284*
G75*
G02X24117Y11198I-317J-86*
G01*
G75*
G02X23461I-328*
G01*
G75*
G02X23875Y11515I328*
G01*
X24028Y11668*
G75*
G02X24084Y11705I115J-115*
G01*
X23361*
Y6525*
G75*
G02X23198Y6362I-163*
G01*
X19998*
X19688Y6052*
Y6025*
G75*
G02X19525Y5862I-163*
G01*
X13434*
G75*
G02X13319Y5910J163*
G01*
X12617Y6612*
G75*
G02X12102Y7025I-92J413*
G01*
G75*
G02X12948I423*
G01*
G75*
G02X12886Y6804I-423J0*
G01*
X13502Y6188*
X19377*
G75*
G02X19410Y6235I148J-69*
G01*
X19815Y6640*
G75*
G02X19931Y6688I115J-115*
G01*
X23035*
Y11868*
G75*
G02X23139Y12019I163*
G01*
X22688*
Y7025*
G75*
G02X22525Y6862I-163*
G01*
X13915*
G75*
G02X13102Y7025I-390J163*
G01*
G75*
G02X13915Y7188I423*
G01*
X22362*
Y12182*
G75*
G02X22525Y12345I163*
G01*
X24892*
Y12362*
X17025*
G75*
G02X16910Y12410J163*
G01*
X14910Y14410*
G75*
G02X14862Y14525I115J115*
G01*
Y14957*
X14457Y15362*
X12415*
G75*
G02X11602Y15525I-390J163*
G01*
G75*
G02X11770Y15862I423*
G01*
X11280*
G75*
G02X11448Y15525I-255J-337*
G01*
G75*
G02X10602I-423*
G01*
G75*
G02X10862Y15915I423*
G01*
Y16025*
G75*
G02X11025Y16188I163*
G01*
X15025*
G75*
G02X15140Y16140J-163*
G01*
X16140Y15140*
G75*
G02X16188Y15025I-115J-115*
G01*
Y14593*
X17805Y12975*
X24321*
G75*
G02X24278Y13000I58J152*
G01*
X24094*
Y13053*
X23708*
G75*
G02X23593Y13101I0J163*
G01*
X22422Y14272*
G75*
G02X22374Y14387I115J115*
G01*
Y15130*
G75*
G02X22213Y15411I163J280*
G01*
G75*
G02X22861I324*
G01*
G75*
G02X22700Y15130I-324*
G01*
Y14455*
X23776Y13379*
X24094*
Y13432*
X24664*
Y13290*
X24892*
Y13333*
X25648*
Y10735*
X27932*
Y10712*
X28224*
Y10001*
X27932*
Y9978*
X27889*
Y9515*
X27971*
Y8945*
X27539*
Y9515*
X27563*
Y9978*
X25630*
Y10717*
X25433*
Y9664*
G75*
G02X25463Y9640I-85J-139*
G01*
X25640Y9463*
G75*
G02X25688Y9348I-115J-115*
G01*
Y5915*
G75*
G02X25886Y5745I-163J-390*
G01*
Y6986*
G75*
G02X25929Y7090I147J0*
G01*
X26716Y7877*
G75*
G02X26820Y7920I104J-104*
G01*
X29155*
X29191Y11091*
X28985*
Y10717*
X28229*
Y13315*
X25945*
Y13338*
X25653*
Y14049*
X25945*
Y14072*
X25988*
Y14362*
X24025*
G75*
G02X23862Y14525J163*
G01*
Y17135*
G75*
G02X23602Y17525I163J390*
G01*
G75*
G02X24362Y17780I423*
G01*
Y18270*
G75*
G02X23602Y18525I-337J255*
G01*
G75*
G02X24427Y18655I423*
G01*
G75*
G02X24525Y18688I98J-130*
G01*
X24635*
G75*
G02X25448Y18525I390J-163*
G01*
G75*
G02X24688Y18270I-423*
G01*
Y17780*
G75*
G02X25448Y17525I337J-255*
G01*
G75*
G02X25188Y17135I-423*
G01*
Y17031*
G75*
G02X25212Y16946I-139J-85*
G01*
Y15692*
X26781*
G75*
G02X26933Y15588J-163*
G01*
Y15862*
X26525*
G75*
G02X26362Y16025J163*
G01*
Y17310*
G75*
G02X25625Y17525I-337J215*
G01*
G75*
G02X26362Y17740I400*
G01*
Y18270*
G75*
G02X25602Y18525I-337J255*
G01*
G75*
G02X26427Y18655I423*
G01*
G75*
G02X26525Y18688I98J-130*
G01*
X26635*
G75*
G02X27427Y18655I390J-163*
G01*
G75*
G02X27525Y18688I98J-130*
G01*
X27635*
G75*
G02X28448Y18525I390J-163*
G01*
G75*
G02X27688Y18270I-423*
G01*
Y17780*
G75*
G02X28448Y17525I337J-255*
G01*
G75*
G02X28219Y17150I-423*
G01*
Y14072*
X28247*
Y13333*
X28985*
Y12975*
X29362*
Y18457*
X27457Y20362*
X17093*
X15916Y19185*
G75*
G02X15948Y19025I-391J-160*
G01*
G75*
G02X15102I-423*
G01*
G75*
G02X15685Y19416I423*
G01*
X16910Y20640*
G75*
G02X17025Y20688I115J-115*
G01*
X27525*
G75*
G02X27640Y20640J-163*
G01*
X29640Y18640*
G75*
G02X29688Y18525I-115J-115*
G01*
Y12812*
G75*
G02X29584Y12660I-163*
G01*
X29862*
Y18957*
X27957Y20862*
X16593*
X14916Y19185*
G75*
G02X14948Y19025I-391J-160*
G01*
G75*
G02X14102I-423*
G01*
G75*
G02X14685Y19416I423*
G01*
X16410Y21140*
G75*
G02X16525Y21188I115J-115*
G01*
X28025*
G75*
G02X28140Y21140J-163*
G01*
X30140Y19140*
G75*
G02X30188Y19025I-115J-115*
G01*
Y12497*
G75*
G02X30083Y12345I-163*
G01*
X30197*
Y12448*
X30741*
Y12649*
X30220*
Y13035*
X30741*
Y13220*
G75*
G02X30954Y13433I213*
G01*
X31240*
Y13436*
X31810*
Y13433*
X32362*
Y17862*
X31860*
G75*
G02X31745Y17910I0J163*
G01*
X30866Y18789*
G75*
G02X30512Y19112I-30J323*
G01*
G75*
G02X31160I324*
G01*
G75*
G02X31133Y18982I-324J0*
G01*
X31927Y18188*
X32362*
Y18549*
G75*
G02X32410Y18664I163*
G01*
X32886Y19140*
G75*
G02X33002Y19188I115J-115*
G01*
X33143*
G75*
G02X33956Y19025I390J-163*
G01*
G75*
G02X33143Y18862I-423*
G01*
X33069*
X32688Y18481*
Y13359*
X33482*
G75*
G02X33577Y13345J-338*
G01*
X34160*
Y12697*
X33577*
G75*
G02X33482Y12683I-96J324*
G01*
X32688*
Y11856*
X33456*
Y12582*
X15602Y10525D02*
G75*
G02X16448I423D01*
G01*
G75*
G02X15602I-423*
G01*
Y11525D02*
G75*
G02X16448I423D01*
G01*
G75*
G02X15602I-423*
G01*
X16602Y10525D02*
G75*
G02X17448I423D01*
G01*
G75*
G02X16602I-423*
G01*
X12602Y14525D02*
G75*
G02X13448I423D01*
G01*
G75*
G02X13026Y14102I-423*
G01*
X12815Y13892*
G75*
G02X13448Y13525I210J-367*
G01*
G75*
G02X12602I-423*
G01*
G75*
G02X12663Y13742I423J0*
G01*
G75*
G02X12568Y13712I-94J133*
G01*
X6533*
X6310Y13489*
G75*
G02X6151Y13362I-159J36*
G01*
X5597*
Y12846*
X3453*
Y14204*
X5597*
Y13688*
X6048*
X6351Y13991*
G75*
G02X6466Y14038I115J-115*
G01*
X12501*
X12708Y14246*
G75*
G02X12602Y14525I317J279*
G01*
X13625Y13525D02*
G75*
G02X14425I400D01*
G01*
G75*
G02X13625I-400*
G01*
X11602Y14525D02*
G75*
G02X12448I423D01*
G01*
G75*
G02X11602I-423*
G01*
X26952Y9492D02*
X27338D01*
Y8968*
X26952*
Y9492*
X24118Y14019D02*
X24641D01*
Y13633*
X24118*
Y14019*
X18102Y16025D02*
G75*
G02X18948I423D01*
G01*
G75*
G02X18487Y15604I-423*
G01*
X18206Y15324*
G75*
G02X18080Y15271I-126J126*
G01*
X16387*
G75*
G02X16261Y15324J179*
G01*
X15946Y15639*
G75*
G02X15894Y15765I126J127*
G01*
Y15770*
X15171Y16492*
X8352*
X7775Y15900*
G75*
G02X7647Y15846I-128J125*
G01*
X5597*
Y15346*
X3453*
Y16704*
X5597*
Y16204*
X7572*
X8149Y16795*
G75*
G02X8277Y16849I128J-125*
G01*
X15245*
G75*
G02X15372Y16797I0J-179*
G01*
X16199Y15970*
G75*
G02X16251Y15844I-126J-126*
G01*
Y15844*
Y15844*
Y15839*
X16461Y15629*
X17377*
G75*
G02X17102Y16025I148J396*
G01*
G75*
G02X17948I423*
G01*
G75*
G02X17673Y15629I-423*
G01*
X18006*
X18171Y15794*
G75*
G02X18102Y16025I354J231*
G01*
Y15025D02*
G75*
G02X18948I423D01*
G01*
G75*
G02X18102I-423*
G01*
X17125Y17025D02*
G75*
G02X17925I400D01*
G01*
G75*
G02X17125I-400*
G01*
X19102Y14025D02*
G75*
G02X19948I423D01*
G01*
G75*
G02X19102I-423*
G01*
Y15025D02*
G75*
G02X19948I423D01*
G01*
G75*
G02X19102I-423*
G01*
X20102Y14025D02*
G75*
G02X20948I423D01*
G01*
G75*
G02X20102I-423*
G01*
X16102Y18025D02*
G75*
G02X16948I423D01*
G01*
G75*
G02X16509Y17603I-423*
G01*
X16263Y17356*
G75*
G02X16948Y17025I262J-331*
G01*
G75*
G02X16102I-423*
G01*
G75*
G02X16194Y17287I423J0*
G01*
X16159Y17253*
G75*
G02X16033Y17201I-127J126*
G01*
X7411*
G75*
G02X7284Y17253J179*
G01*
X6706Y17831*
X5597Y17839*
Y17346*
X3453*
Y18704*
X5597*
Y18196*
X6782Y18188*
G75*
G02X6908Y18135I-1J-179*
G01*
X7485Y17558*
X15959*
X16181Y17780*
G75*
G02X16102Y18025I344J245*
G01*
X15102D02*
G75*
G02X15948I423D01*
G01*
G75*
G02X15102I-423*
G01*
X31688Y14046D02*
X31810D01*
Y13614*
X31240*
Y14046*
X31362*
Y14644*
X31250*
Y15154*
X31800*
Y14644*
X31688*
Y14046*
X31273Y15761D02*
X31777D01*
Y15297*
X31273*
Y15761*
X34803Y16956D02*
X35235D01*
Y16386*
X34803*
Y16547*
X34192*
Y16425*
X33760*
Y16995*
X34192*
Y16873*
X34803*
Y16956*
X34480Y15928D02*
X35129D01*
Y14571*
X34480*
Y15928*
X33529Y15148D02*
X34168D01*
Y14500*
X32811*
Y15148*
X33203*
Y16425*
X33150*
Y16995*
X33581*
Y16425*
X33529*
Y15148*
X32808Y14247D02*
X33575D01*
Y13598*
X32808*
Y14247*
X35688Y6915D02*
G75*
G02X35948Y6525I-163J-390D01*
G01*
G75*
G02X35102I-423*
G01*
G75*
G02X35270Y6862I423*
G01*
X34740*
G75*
G02X34925Y6525I-215J-337*
G01*
G75*
G02X34125I-400*
G01*
G75*
G02X34310Y6862I400*
G01*
X33780*
G75*
G02X33948Y6525I-255J-337*
G01*
G75*
G02X33102I-423*
G01*
G75*
G02X33395Y6927I423*
G01*
G75*
G02X33362Y7025I130J98*
G01*
Y9525*
G75*
G02X33525Y9688I163*
G01*
X34004*
Y9810*
X34436*
Y9240*
X34004*
Y9362*
X33688*
Y7188*
X35525*
G75*
G02X35688Y7025J-163*
G01*
Y6915*
X31763Y10913D02*
X32287D01*
Y10527*
X31763*
Y10913*
X21125Y4525D02*
G75*
G02X21925I400D01*
G01*
G75*
G02X21125I-400*
G01*
X31453Y7245D02*
G75*
G02X32298I423D01*
G01*
G75*
G02X31453I-423*
G01*
X30102Y4525D02*
G75*
G02X30948I423D01*
G01*
G75*
G02X30102I-423*
G01*
Y5525D02*
G75*
G02X30948I423D01*
G01*
G75*
G02X30102I-423*
G01*
X29102Y4525D02*
G75*
G02X29948I423D01*
G01*
G75*
G02X29102I-423*
G01*
X30220Y10929D02*
X30744D01*
Y10543*
X30220*
Y10929*
X29476Y7245D02*
G75*
G02X30275I400D01*
G01*
G75*
G02X29476I-400*
G01*
X27102Y4525D02*
G75*
G02X27948I423D01*
G01*
G75*
G02X27102I-423*
G01*
Y5525D02*
G75*
G02X27948I423D01*
G01*
G75*
G02X27102I-423*
G01*
X28102Y4525D02*
G75*
G02X28948I423D01*
G01*
G75*
G02X28102I-423*
G01*
X26102D02*
G75*
G02X26948I423D01*
G01*
G75*
G02X26102I-423*
G01*
X22102D02*
G75*
G02X22948I423D01*
G01*
G75*
G02X22102I-423*
G01*
Y5525D02*
G75*
G02X22948I423D01*
G01*
G75*
G02X22102I-423*
G01*
X23102Y4525D02*
G75*
G02X23948I423D01*
G01*
G75*
G02X23102I-423*
G01*
X12102Y8025D02*
G75*
G02X12948I423D01*
G01*
G75*
G02X12102I-423*
G01*
X8102Y11025D02*
G75*
G02X8948I423D01*
G01*
G75*
G02X8102I-423*
G01*
Y12025D02*
G75*
G02X8948I423D01*
G01*
G75*
G02X8102I-423*
G01*
X9102Y11025D02*
G75*
G02X9948I423D01*
G01*
G75*
G02X9102I-423*
G01*
X10102Y10025D02*
G75*
G02X10948I423D01*
G01*
G75*
G02X10102I-423*
G01*
X10125Y9025D02*
G75*
G02X10925I400D01*
G01*
G75*
G02X10125I-400*
G01*
X11102D02*
G75*
G02X11948I423D01*
G01*
G75*
G02X11102I-423*
G01*
X7102Y12025D02*
G75*
G02X7948I423D01*
G01*
G75*
G02X7102I-423*
G01*
X3484Y20525D02*
G75*
G02X4566I541D01*
G01*
G75*
G02X3484I-541*
G01*
X34117Y19025D02*
G75*
G02X34917I400D01*
G01*
G75*
G02X34117I-400*
G01*
X35436Y16932D02*
X35822D01*
Y16409*
X35436*
Y16932*
X36264Y15924D02*
X36912D01*
Y14567*
X36264*
Y15924*
X36633Y19025D02*
G75*
G02X37433I400D01*
G01*
G75*
G02X36633I-400*
G01*
X39121Y13108D02*
G75*
G02X39747Y12970I298J-138D01*
G01*
G75*
G02X39121Y12832I-328*
G01*
X38566*
Y12736*
X37209*
Y13385*
X38566*
Y13108*
X39121*
X37209Y14282D02*
X38566D01*
Y13634*
X37209*
Y14282*
X37213Y15172D02*
X38570D01*
Y14524*
X37213*
Y15172*
X40484Y20525D02*
G75*
G02X41566I541D01*
G01*
G75*
G02X40484I-541*
G01*
X39984Y3025D02*
G75*
G02X41066I541D01*
G01*
G75*
G02X39984I-541*
G01*
X37102Y6525D02*
G75*
G02X37948I423D01*
G01*
G75*
G02X37102I-423*
G01*
X36102D02*
G75*
G02X36948I423D01*
G01*
G75*
G02X36102I-423*
G01*
X2965Y3025D02*
G36*
Y2308D01*
X41785*
Y3025*
X41066*
G75*
G02X39984I-541*
G01*
X4566*
G75*
G02X3484I-541*
G01*
X2965*
G37*
X32661Y4525D02*
G36*
X32652Y3796D01*
Y3525*
Y3525*
Y3525*
G75*
G02X32489Y3362I-163*
G01*
X32427*
G75*
G02X32317Y3391I-16J163*
G01*
X31531Y3362*
G75*
G02X31525Y3362I-8J238*
G01*
X21179*
G75*
G02X21063Y3410I0J163*
G01*
X20563Y3910*
G75*
G02X20516Y4025I115J115*
G01*
Y4525*
X2965*
Y3025*
X3484*
G75*
G02X4566I541*
G01*
X39984*
G75*
G02X41066I541*
G01*
X41785*
Y4525*
X32661*
G37*
X32336D02*
G36*
X30948D01*
G75*
G02X30102I-423*
G01*
X29948*
G75*
G02X29102I-423*
G01*
X28948*
G75*
G02X28102I-423*
G01*
X27948*
G75*
G02X27102I-423*
G01*
X26948*
G75*
G02X26102I-423*
G01*
X25948*
G75*
G02X25102I-423*
G01*
X24948*
G75*
G02X24102I-423*
G01*
X23948*
G75*
G02X23102I-423*
G01*
X22948*
G75*
G02X22102I-423*
G01*
X21925*
G75*
G02X21125I-400*
G01*
X20841*
Y4092*
X21246Y3688*
X31522*
X32297Y3716*
G75*
G02X32327Y3739I114J-117*
G01*
Y3797*
Y3799*
X32336Y4525*
G37*
X39147Y5525D02*
G36*
X32674D01*
X32661Y4525*
X41785*
Y5276*
G75*
G02X39147Y5525I-1260J749*
G01*
G37*
X21102D02*
G36*
X2965D01*
Y4525*
X20516*
Y4698*
G75*
G02X20563Y4813I163J0*
G01*
X21129Y5378*
G75*
G02X21102Y5525I397J147*
G01*
G37*
X24102Y4525D02*
G36*
Y4525D01*
G75*
G02X24281Y4870I422*
G01*
X23986*
G75*
G02X23881Y4913I0J147*
G01*
X23668Y5127*
G75*
G02X23102Y5525I-143J398*
G01*
X22948*
G75*
G02X22102I-423*
G01*
X21948*
G75*
G02X21351Y5140I-423*
G01*
X20841Y4631*
Y4525*
X21125*
G75*
G02X21925I400*
G01*
X22102*
G75*
G02X22948I423*
G01*
X23102*
G75*
G02X23948I423*
G01*
X24102*
G37*
X25102D02*
G36*
Y4525D01*
G75*
G02X25281Y4870I422*
G01*
X24769*
G75*
G02X24948Y4525I-244J-345*
G01*
Y4525*
X25102*
G37*
X24102Y5525D02*
G36*
X23948D01*
G75*
G02X23893Y5318I-423J0*
G01*
X24047Y5164*
X24305*
G75*
G02X24102Y5525I220J361*
G01*
G37*
X32348D02*
G36*
X30948D01*
G75*
G02X30102I-423*
G01*
X29948*
G75*
G02X29102I-423*
G01*
X28948*
G75*
G02X28102I-423*
G01*
X27948*
G75*
G02X27102I-423*
G01*
X26948*
Y5525*
G75*
G02X26180Y5281I-423*
G01*
Y5017*
G75*
G02X26033Y4870I-147*
G01*
X25769*
G75*
G02X25948Y4525I-244J-345*
G01*
Y4525*
X26102*
G75*
G02X26948I423*
G01*
X27102*
G75*
G02X27948I423*
G01*
X28102*
G75*
G02X28948I423*
G01*
X29102*
G75*
G02X29948I423*
G01*
X30102*
G75*
G02X30948I423*
G01*
X32336*
X32348Y5525*
G37*
X39147Y6525D02*
G36*
X37948D01*
G75*
G02X37102I-423*
G01*
X36948*
G75*
G02X36102I-423*
G01*
X35948*
G75*
G02X35102I-423*
G01*
X34925*
G75*
G02X34125I-400*
G01*
X33948*
G75*
G02X33102I-423*
G01*
X32686*
X32674Y5525*
X39147*
G75*
G02X39059Y6025I1378J500*
G01*
G75*
G02X39147Y6525I1466J0*
G01*
G37*
X19700D02*
G36*
X13165D01*
X13502Y6188*
X19377*
G75*
G02X19410Y6235I149J-69*
G01*
X19700Y6525*
G37*
X25886D02*
G36*
X25688D01*
Y5915*
G75*
G02X25886Y5745I-163J-390*
G01*
Y6525*
G37*
X24102Y5525D02*
G36*
G75*
G02X24362Y5915I423D01*
G01*
Y6525*
X23361*
G75*
G02X23198Y6362I-163*
G01*
X19998*
X19688Y6052*
Y6025*
G75*
G02X19525Y5862I-163*
G01*
X13434*
G75*
G02X13319Y5910I0J163*
G01*
X12704Y6525*
X10358*
X10243Y6410*
G75*
G02X10127Y6362I-115J115*
G01*
X5597*
Y5846*
X3453*
Y6525*
X2965*
Y5525*
X21102*
G75*
G02X21948I423*
G01*
X22102*
G75*
G02X22948I423*
G01*
X23102*
G75*
G02X23948I423*
G01*
X24102*
G37*
X29102D02*
G36*
G75*
G02X29307Y5887I423J0D01*
G01*
X29090*
X28909Y5701*
G75*
G02X28948Y5525I-385J-176*
G01*
X29102*
G37*
X29843Y6525D02*
G36*
X26180D01*
Y5769*
G75*
G02X26948Y5525I345J-244*
G01*
Y5525*
X27102*
G75*
G02X27948I423*
G01*
X28102*
G75*
G02X28689Y5915I423*
G01*
X28914Y6148*
G75*
G02X29025Y6194I111J-107*
G01*
X29513*
X29843Y6525*
G37*
X32360D02*
G36*
X30278D01*
X29685Y5932*
G75*
G02X29673Y5921I-110J110*
G01*
G75*
G02X29948Y5525I-148J-396*
G01*
Y5525*
X30102*
G75*
G02X30948I423*
G01*
X32348*
X32360Y6525*
G37*
X3453D02*
G36*
Y7147D01*
X2965*
Y6525*
X3453*
G37*
X10519Y7147D02*
G36*
X5597D01*
Y6688*
X10060*
X10519Y7147*
G37*
X12704Y6525D02*
G36*
X12617Y6612D01*
G75*
G02X12102Y7025I-92J413*
G01*
Y7025*
G75*
G02X12120Y7147I423J0*
G01*
X10980*
X10358Y6525*
X12704*
G37*
X23035Y7147D02*
G36*
X22688D01*
Y7025*
G75*
G02X22525Y6862I-163*
G01*
X13915*
G75*
G02X13102Y7025I-390J163*
G01*
G75*
G02X13120Y7147I423J0*
G01*
X12930*
G75*
G02X12948Y7025I-405J-122*
G01*
G75*
G02X12886Y6804I-423*
G01*
X13165Y6525*
X19700*
X19815Y6640*
G75*
G02X19931Y6688I115J-115*
G01*
X23035*
Y7147*
G37*
X24362D02*
G36*
X23361D01*
Y6525*
X24362*
Y7147*
G37*
X25986D02*
G36*
X25688D01*
Y6525*
X25886*
Y6986*
Y6986*
G75*
G02X25929Y7090I147*
G01*
X25986Y7147*
G37*
X30328D02*
G36*
X30263D01*
G75*
G02X29488I-387J98*
G01*
X26402*
X26180Y6925*
Y6525*
X29843*
X30328Y7010*
Y7147*
G37*
X32368D02*
G36*
X32286D01*
G75*
G02X31464I-411J98*
G01*
X30635*
Y6946*
Y6946*
G75*
G02X30590Y6837I-154*
G01*
X30278Y6525*
X32360*
X32368Y7147*
G37*
X34125Y6525D02*
G36*
G75*
G02X34310Y6862I400J0D01*
G01*
X33780*
G75*
G02X33948Y6525I-255J-337*
G01*
X34125*
G37*
X33362Y7147D02*
G36*
X32694D01*
X32686Y6525*
X33102*
G75*
G02X33395Y6927I423J0*
G01*
G75*
G02X33362Y7025I130J98*
G01*
Y7025*
Y7147*
G37*
X35102Y6525D02*
G36*
G75*
G02X35270Y6862I423D01*
G01*
X34740*
G75*
G02X34925Y6525I-215J-337*
G01*
X35102*
G37*
X39147D02*
G36*
G75*
G02X39582Y7147I1378J-500D01*
G01*
X35633*
G75*
G02X35688Y7025I-108J-122*
G01*
Y6915*
G75*
G02X35948Y6525I-163J-390*
G01*
X36102*
G75*
G02X36948I423*
G01*
X37102*
G75*
G02X37948I423*
G01*
X39147*
G37*
X41785Y6774D02*
G36*
Y7147D01*
X41468*
G75*
G02X41785Y6774I-944J-1122*
G01*
G37*
X11102Y8025D02*
G36*
X5597D01*
Y7846*
X3453*
Y8025*
X2965*
Y7147*
X3453*
Y7204*
X5597*
Y7147*
X10519*
X11169Y7797*
G75*
G02X11102Y8025I356J228*
G01*
G37*
X22362D02*
G36*
X12948D01*
G75*
G02X12102I-423*
G01*
X11948*
Y8025*
G75*
G02X11443Y7610I-423*
G01*
X10980Y7147*
X12120*
G75*
G02X12930I405J-122*
G01*
X13120*
G75*
G02X13915Y7188I405J-122*
G01*
X22362*
Y8025*
G37*
X23035D02*
G36*
X22688D01*
Y7147*
X23035*
Y8025*
G37*
X24362D02*
G36*
X23361D01*
Y7147*
X24362*
Y8025*
G37*
X29156D02*
G36*
X25688D01*
Y7147*
X25986*
X26716Y7877*
G75*
G02X26820Y7920I104J-104*
G01*
X29155*
X29156Y8025*
G37*
X30437D02*
G36*
X29451D01*
X29448Y7771*
G75*
G02X29300Y7626I-147J2*
G01*
X26881*
X26402Y7147*
X29488*
G75*
G02X29476Y7245I387J98*
G01*
G75*
G02X30275I400*
G01*
G75*
G02X30263Y7147I-400J0*
G01*
X30328*
Y7852*
Y7852*
G75*
G02X30373Y7961I154*
G01*
X30437Y8025*
G37*
X32379D02*
G36*
X30872D01*
X30635Y7788*
Y7147*
X31464*
G75*
G02X31453Y7245I411J98*
G01*
G75*
G02X32298I423*
G01*
G75*
G02X32286Y7147I-423J0*
G01*
X32368*
X32379Y8025*
G37*
X33362Y7147D02*
G36*
Y8025D01*
X32705*
X32694Y7147*
X33362*
G37*
X39582D02*
G36*
G75*
G02X39631Y7187I943J-1122D01*
G01*
X36830*
G75*
G02X36591Y7286I0J338*
G01*
X35852Y8025*
X33688*
Y7188*
X35525*
G75*
G02X35633Y7147I0J-163*
G01*
X39582*
G37*
X41468D02*
G36*
X41785D01*
Y8025*
X36808*
X36970Y7863*
X40078*
G75*
G02X40317Y7764I0J-338*
G01*
X40591Y7489*
G75*
G02X41468Y7147I-67J-1465*
G01*
G37*
X3453Y9147D02*
G36*
X2965D01*
Y8025*
X3453*
Y9147*
G37*
X8405D02*
G36*
X5597D01*
Y8704*
X7966*
X8405Y9147*
G37*
X22362D02*
G36*
X11930D01*
G75*
G02X11948Y9025I-405J-122*
G01*
G75*
G02X11102I-423*
G01*
G75*
G02X11120Y9147I423J0*
G01*
X10906*
G75*
G02X10925Y9025I-381J-122*
G01*
G75*
G02X10125I-400*
G01*
G75*
G02X10144Y9147I400*
G01*
X8908*
X8168Y8399*
G75*
G02X8041Y8346I-127J126*
G01*
X5597*
Y8025*
X11102*
G75*
G02X11948I423*
G01*
X12102*
G75*
G02X12948I423*
G01*
X22362*
Y9147*
G37*
X23035D02*
G36*
X22688D01*
Y8025*
X23035*
Y9147*
G37*
X24362D02*
G36*
X23361D01*
Y8025*
X24362*
Y9147*
G37*
X29169D02*
G36*
X27971D01*
Y8945*
X27539*
Y9147*
X27338*
Y8968*
X26952*
Y9147*
X25688*
Y8025*
X29156*
X29169Y9147*
G37*
X31464D02*
G36*
X30286D01*
G75*
G02X29464I-411J98*
G01*
X29463*
X29451Y8025*
X30437*
X31488Y9076*
G75*
G02X31464Y9147I387J169*
G01*
G37*
X32393D02*
G36*
X32286D01*
G75*
G02X31706Y8858I-411J98*
G01*
X30872Y8025*
X32379*
X32393Y9147*
G37*
X33362D02*
G36*
X32718D01*
X32705Y8025*
X33362*
Y9147*
G37*
X35852Y8025D02*
G36*
X35812Y8065D01*
X35747*
G75*
G02X35566Y8118I0J338*
G01*
X35531*
Y8143*
G75*
G02X35409Y8403I216J260*
G01*
Y8616*
X35330*
Y8141*
X34944*
Y8616*
X34830*
G75*
G02X34492Y8954J338*
G01*
Y9147*
X33688*
Y8025*
X35852*
G37*
X39132Y9147D02*
G36*
X36025D01*
G75*
G02X36085Y8954I-278J-193*
G01*
Y8714*
G75*
G02X36191Y8642I-133J-311*
G01*
X36808Y8025*
X41785*
Y8823*
G75*
G02X39132Y9147I-1260J702*
G01*
G37*
X9102Y10025D02*
G36*
X2965D01*
Y9147*
X3453*
Y9204*
X5597*
Y9147*
X8405*
X9129Y9879*
G75*
G02X9102Y10025I397J147*
G01*
G37*
X22362D02*
G36*
X10948D01*
G75*
G02X10102I-423*
G01*
X9948*
G75*
G02X9383Y9627I-423*
G01*
X8908Y9147*
X10144*
G75*
G02X10906I381J-122*
G01*
X11120*
G75*
G02X11930I405J-122*
G01*
X22362*
Y10025*
G37*
X23035D02*
G36*
X22688D01*
Y9147*
X23035*
Y10025*
G37*
X24362Y9147D02*
G36*
Y10025D01*
X23361*
Y9147*
X24362*
G37*
X25630Y10025D02*
G36*
X25433D01*
Y9664*
G75*
G02X25463Y9640I-84J-138*
G01*
X25640Y9463*
G75*
G02X25688Y9348I-115J-115*
G01*
Y9348*
Y9147*
X26952*
Y9492*
X27338*
Y9147*
X27539*
Y9515*
X27563*
Y9978*
X25630*
Y10025*
G37*
X29179D02*
G36*
X28224D01*
Y10001*
X27932*
Y9978*
X27889*
Y9515*
X27971*
Y9147*
X29169*
X29179Y10025*
G37*
X29464Y9147D02*
G36*
G75*
G02X29463Y9152I412J98D01*
G01*
X29463Y9147*
X29464*
G37*
X31464D02*
G36*
G75*
G02X31460Y9169I411J98D01*
G01*
X30998Y9630*
G75*
G02X30958Y9728I98J98*
G01*
Y10025*
X29473*
X29466Y9349*
G75*
G02X30298Y9245I410J-103*
G01*
G75*
G02X30286Y9147I-423J0*
G01*
X31464*
G37*
X31461Y10025D02*
G36*
X31234D01*
Y9785*
X31530Y9489*
G75*
G02X32298Y9245I345J-244*
G01*
G75*
G02X32286Y9147I-423J0*
G01*
X32393*
X32404Y10012*
X31525*
G75*
G02X31461Y10025I0J163*
G01*
G37*
X36254D02*
G36*
X32729D01*
X32718Y9147*
X33362*
Y9525*
G75*
G02X33525Y9688I163*
G01*
X34004*
Y9810*
X34436*
Y9240*
X34004*
Y9362*
X33688*
Y9147*
X34492*
Y9525*
G75*
G02X34614Y9785I338J0*
G01*
Y9810*
X34648*
G75*
G02X34830Y9863I182J-284*
G01*
X36254*
Y10025*
G37*
X39171D02*
G36*
X36930D01*
Y9525*
G75*
G02X36592Y9187I-338*
G01*
X35992*
G75*
G02X36025Y9147I-245J-233*
G01*
X39132*
G75*
G02X39082Y9525I1393J378*
G01*
G75*
G02X39171Y10025I1443J0*
G01*
G37*
X22362Y10525D02*
G36*
X17448D01*
G75*
G02X16602I-423*
G01*
X16448*
G75*
G02X15602I-423*
G01*
X2965*
Y10025*
X9102*
G75*
G02X9948I423*
G01*
X10102*
G75*
G02X10948I423*
G01*
X22362*
Y10525*
G37*
X23035D02*
G36*
X22688D01*
Y10025*
X23035*
Y10525*
G37*
X24362D02*
G36*
X23361D01*
Y10025*
X24362*
Y10525*
G37*
X25630D02*
G36*
X25433D01*
Y10025*
X25630*
Y10525*
G37*
X29185D02*
G36*
X28224D01*
Y10025*
X29179*
X29185Y10525*
G37*
X30958D02*
G36*
X29479D01*
X29473Y10025*
X30958*
Y10525*
G37*
X31461Y10025D02*
G36*
G75*
G02X31362Y10175I64J150D01*
G01*
Y10525*
X31234*
Y10025*
X31461*
G37*
X36254Y10525D02*
G36*
X31688D01*
Y10337*
X32568*
G75*
G02X32731Y10175J-163*
G01*
Y10172*
X32729Y10025*
X36254*
Y10525*
G37*
X39171Y10025D02*
G36*
G75*
G02X39485Y10525I1354J-500D01*
G01*
X36930*
Y10025*
X39171*
G37*
X41785Y10227D02*
G36*
Y10525D01*
X41565*
G75*
G02X41785Y10227I-1040J-1000*
G01*
G37*
X15602Y10525D02*
G36*
G75*
G02X15650Y10720I423J0D01*
G01*
X9817*
G75*
G02X9233I-292J305*
G01*
X8817*
G75*
G02X8233I-292J305*
G01*
X2965*
Y10525*
X15602*
G37*
X16602D02*
G36*
G75*
G02X16650Y10720I423J0D01*
G01*
X16400*
G75*
G02X16448Y10525I-375J-195*
G01*
X16602*
G37*
X22362Y10720D02*
G36*
X17400D01*
G75*
G02X17448Y10525I-375J-195*
G01*
X22362*
Y10720*
G37*
X23035D02*
G36*
X22688D01*
Y10525*
X23035*
Y10720*
G37*
X24362D02*
G36*
X23361D01*
Y10525*
X24362*
Y10720*
G37*
X25630Y10525D02*
G36*
Y10717D01*
X25433*
Y10525*
X25630*
G37*
X29187Y10720D02*
G36*
X28985D01*
Y10717*
X28229*
Y10720*
X27932*
Y10712*
X28224*
Y10525*
X29185*
X29187Y10720*
G37*
X30958D02*
G36*
X30744D01*
Y10543*
X30220*
Y10720*
X29481*
X29479Y10525*
X30958*
Y10720*
G37*
X31362D02*
G36*
X31234D01*
Y10525*
X31362*
Y10720*
G37*
X36254D02*
G36*
X32287D01*
Y10527*
X31763*
Y10720*
X31688*
Y10525*
X36254*
Y10720*
G37*
X39485Y10525D02*
G36*
G75*
G02X39716Y10720I1040J-1000D01*
G01*
X36930*
Y10525*
X39485*
G37*
X41565D02*
G36*
X41785D01*
Y10720*
X41334*
G75*
G02X41565Y10525I-809J-1195*
G01*
G37*
X22362Y11525D02*
G36*
X16448D01*
G75*
G02X15602I-423*
G01*
X15448*
G75*
G02X14602I-423*
G01*
X6236*
X6189Y11478*
G75*
G02X6033Y11362I-156J47*
G01*
X5597*
Y10846*
X3453*
Y11525*
X2965*
Y10720*
X8233*
G75*
G02X8102Y11025I292J305*
G01*
G75*
G02X8948I423*
G01*
G75*
G02X8817Y10720I-423*
G01*
X9233*
G75*
G02X9102Y11025I292J305*
G01*
G75*
G02X9948I423*
G01*
G75*
G02X9817Y10720I-423*
G01*
X15650*
G75*
G02X16400I375J-195*
G01*
X16650*
G75*
G02X17400I375J-195*
G01*
X22362*
Y11525*
G37*
X23035D02*
G36*
X22688D01*
Y10720*
X23035*
Y11525*
G37*
X23885D02*
G36*
X23817D01*
G75*
G02X23875Y11515I-28J-327*
G01*
X23885Y11525*
G37*
X24362Y10720D02*
G36*
Y11238D01*
G75*
G02X24466Y11390I163*
G01*
X24211*
X24105Y11284*
G75*
G02X24117Y11198I-315J-86*
G01*
Y11198*
G75*
G02X23461I-328*
G01*
G75*
G02X23761Y11525I328*
G01*
X23361*
Y10720*
X24362*
G37*
X28229Y11525D02*
G36*
X25648D01*
Y10735*
X27932*
Y10720*
X28229*
Y11525*
G37*
X29187Y10720D02*
G36*
X29191Y11091D01*
X28985*
Y10720*
X29187*
G37*
X30958D02*
G36*
Y10969D01*
X30767Y11161*
Y11130*
X30197*
Y11381*
X30056Y11525*
X28985*
Y11385*
X29340*
G75*
G02X29487Y11238I0J-147*
G01*
Y11236*
X29481Y10720*
X30220*
Y10929*
X30744*
Y10720*
X30958*
G37*
X31362Y11525D02*
G36*
X30767D01*
Y11484*
X30776*
G75*
G02X30874Y11443I0J-138*
G01*
X31193Y11124*
G75*
G02X31234Y11027I-98J-98*
G01*
Y10720*
X31362*
Y11525*
G37*
X36152D02*
G36*
X34329D01*
Y10804*
X33456*
Y10906*
X32807*
Y11167*
X32310*
Y11114*
X31740*
Y11167*
X31688*
Y10720*
X31763*
Y10913*
X32287*
Y10720*
X36254*
Y10805*
X36152*
Y11525*
G37*
X39795D02*
G36*
X38570D01*
Y11428*
X39698*
X39795Y11525*
G37*
X41334Y10720D02*
G36*
X41785D01*
Y11525*
X40255*
X39880Y11150*
G75*
G02X39765Y11102I-115J115*
G01*
X38570*
Y10941*
X37930*
Y10805*
X36930*
Y10720*
X39716*
G75*
G02X41334I809J-1195*
G01*
G37*
X3453Y11525D02*
G36*
Y11970D01*
X2965*
Y11525*
X3453*
G37*
X6220Y11970D02*
G36*
X5597D01*
Y11688*
X5938*
X6220Y11970*
G37*
X22362D02*
G36*
X14830D01*
X14692Y11831*
G75*
G02X14576Y11783I-115J115*
G01*
X12253*
G75*
G02X12090Y11946J163*
G01*
Y11970*
X8944*
G75*
G02X8106I-419J55*
G01*
X7944*
G75*
G02X7106I-419J55*
G01*
X6681*
X6236Y11525*
X14602*
G75*
G02X15448I423*
G01*
X15602*
G75*
G02X16448I423*
G01*
X22362*
Y11970*
G37*
X23885Y11525D02*
G36*
X24028Y11668D01*
G75*
G02X24084Y11705I115J-115*
G01*
X23361*
Y11525*
X23761*
G75*
G02X23817I28J-327*
G01*
X23885*
G37*
X23071Y11970D02*
G36*
X22688D01*
Y11525*
X23035*
Y11868*
G75*
G02X23071Y11970I163*
G01*
G37*
X28229D02*
G36*
X25648D01*
Y11525*
X28229*
Y11970*
G37*
X30056Y11525D02*
G36*
X29895Y11689D01*
X28985*
Y11525*
X30056*
G37*
X31362D02*
G36*
Y11970D01*
X30120*
X30520Y11562*
X30767*
Y11525*
X31362*
G37*
X33456Y11970D02*
G36*
X32688D01*
Y11856*
X33456*
Y11970*
G37*
X40240D02*
G36*
X34329D01*
Y11525*
X36152*
Y11678*
X37930*
Y11589*
X38570*
Y11525*
X39795*
X40240Y11970*
G37*
X40678D02*
G36*
G75*
G02X40640Y11910I-153J55D01*
G01*
X40255Y11525*
X41785*
Y11970*
X40678*
G37*
X7263Y13013D02*
G36*
X5597D01*
Y12846*
X3453*
Y13013*
X2965*
Y11970*
X3453*
Y12204*
X5597*
Y11970*
X6220*
X7263Y13013*
G37*
X12090Y11970D02*
G36*
Y12194D01*
X11517Y12768*
X7478*
X6681Y11970*
X7106*
G75*
G02X7102Y12025I419J55*
G01*
G75*
G02X7948I423*
G01*
G75*
G02X7944Y11970I-423J0*
G01*
X8106*
G75*
G02X8102Y12025I419J55*
G01*
G75*
G02X8948I423*
G01*
G75*
G02X8944Y11970I-423J0*
G01*
X12090*
G37*
X22362D02*
G36*
Y12182D01*
G75*
G02X22525Y12345I163*
G01*
X24892*
Y12362*
X17025*
G75*
G02X16910Y12410I0J163*
G01*
X16306Y13013*
X11732*
X12368Y12377*
G75*
G02X12416Y12261I-115J-115*
G01*
Y12261*
Y12109*
X13949*
G75*
G02X13602Y12525I76J416*
G01*
Y12525*
G75*
G02X14448I423*
G01*
Y12525*
G75*
G02X14101Y12109I-423*
G01*
X14509*
X14680Y12281*
G75*
G02X14602Y12525I345J244*
G01*
G75*
G02X15448I423*
G01*
Y12525*
G75*
G02X14967Y12106I-423*
G01*
X14830Y11970*
X22362*
G37*
X23071D02*
G36*
G75*
G02X23139Y12019I127J-102D01*
G01*
X22688*
Y11970*
X23071*
G37*
X24094Y13013D02*
G36*
X17767D01*
X17805Y12975*
X24321*
G75*
G02X24278Y13000I59J153*
G01*
X24094*
Y13013*
G37*
X29362D02*
G36*
X28985D01*
Y12975*
X29362*
Y13013*
G37*
X28229Y11970D02*
G36*
Y13013D01*
X25648*
Y11970*
X28229*
G37*
X29862Y13013D02*
G36*
X29688D01*
Y12812*
G75*
G02X29584Y12660I-163*
G01*
X29862*
Y13013*
G37*
X31362Y11970D02*
G36*
Y13004D01*
X31240*
Y13007*
X31167*
Y12232*
G75*
G02X30954Y12019I-213*
G01*
X30767*
Y12016*
X30197*
Y12020*
X30064*
G75*
G02X30097Y11993I-93J-152*
G01*
X30120Y11970*
X31362*
G37*
X30220Y13013D02*
G36*
X30188D01*
Y12497*
G75*
G02X30083Y12345I-163*
G01*
X30197*
Y12448*
X30741*
Y12649*
X30220*
Y13013*
G37*
X40362D02*
G36*
X39744D01*
G75*
G02X39747Y12970I-325J-43*
G01*
G75*
G02X39121Y12832I-328J0*
G01*
X38566*
Y12736*
X37209*
Y13013*
X34160*
Y12697*
X33577*
G75*
G02X33482Y12683I-96J324*
G01*
X32688*
Y11970*
X33456*
Y12582*
X34329*
Y11970*
X40240*
X40362Y12092*
Y13013*
G37*
X40688D02*
G36*
Y12025D01*
G75*
G02X40678Y11970I-163J0*
G01*
X41785*
Y13013*
X40688*
G37*
X3453Y13897D02*
G36*
X2965D01*
Y13013*
X3453*
Y13897*
G37*
X6257D02*
G36*
X5597D01*
Y13688*
X6048*
X6257Y13897*
G37*
X12824D02*
G36*
X12820D01*
X12815Y13892*
G75*
G02X12824Y13897I210J-367*
G01*
G37*
X16306Y13013D02*
G36*
X15422Y13897D01*
X14171*
G75*
G02X14425Y13525I-146J-372*
G01*
G75*
G02X13625I-400*
G01*
G75*
G02X13879Y13897I400*
G01*
X13226*
G75*
G02X13448Y13525I-201J-372*
G01*
G75*
G02X12602I-423*
G01*
G75*
G02X12663Y13742I423J0*
G01*
G75*
G02X12568Y13712I-94J133*
G01*
X6533*
X6310Y13489*
G75*
G02X6151Y13362I-159J36*
G01*
X5597*
Y13013*
X7263*
X7295Y13046*
G75*
G02X7411Y13094I115J-115*
G01*
X11584*
G75*
G02X11699Y13046I0J-163*
G01*
X11732Y13013*
X16306*
G37*
X24094D02*
G36*
Y13053D01*
X23708*
G75*
G02X23593Y13101I0J163*
G01*
X22797Y13897*
X20928*
G75*
G02X20122I-403J128*
G01*
X19928*
G75*
G02X19122I-403J128*
G01*
X16883*
X17767Y13013*
X24094*
G37*
X28229D02*
G36*
Y13315D01*
X25945*
Y13338*
X25653*
Y13897*
X24641*
Y13633*
X24118*
Y13897*
X23257*
X23776Y13379*
X24094*
Y13432*
X24664*
Y13290*
X24892*
Y13333*
X25648*
Y13013*
X28229*
G37*
X29362Y13897D02*
G36*
X28247D01*
Y13333*
X28985*
Y13013*
X29362*
Y13897*
G37*
X29862D02*
G36*
X29688D01*
Y13013*
X29862*
Y13897*
G37*
X30220Y13013D02*
G36*
Y13035D01*
X30741*
Y13220*
G75*
G02X30954Y13433I213*
G01*
X31240*
Y13436*
X31810*
Y13433*
X32362*
Y13897*
X31810*
Y13614*
X31240*
Y13897*
X30188*
Y13013*
X30220*
G37*
X40362Y13897D02*
G36*
X38566D01*
Y13634*
X37209*
Y13897*
X33575*
Y13598*
X32808*
Y13897*
X32688*
Y13359*
X33482*
G75*
G02X33577Y13345J-338*
G01*
X34160*
Y13013*
X37209*
Y13385*
X38566*
Y13108*
X39121*
G75*
G02X39744Y13013I298J-138*
G01*
X40362*
Y13897*
G37*
X40688D02*
G36*
Y13013D01*
X41785*
Y13897*
X40688*
G37*
X12602Y14525D02*
G36*
X12448D01*
G75*
G02X11602I-423*
G01*
X2965*
Y13897*
X3453*
Y14204*
X5597*
Y13897*
X6257*
X6351Y13991*
G75*
G02X6466Y14038I115J-115*
G01*
X12501*
X12708Y14246*
G75*
G02X12602Y14525I317J279*
G01*
G37*
X15422Y13897D02*
G36*
X14910Y14410D01*
G75*
G02X14862Y14525I115J115*
G01*
Y14525*
X13448*
Y14525*
G75*
G02X13026Y14102I-423*
G01*
X12820Y13897*
X12824*
G75*
G02X13226I201J-372*
G01*
X13879*
G75*
G02X14171I146J-372*
G01*
X15422*
G37*
X22797D02*
G36*
X22422Y14272D01*
G75*
G02X22374Y14387I115J115*
G01*
Y14525*
X16256*
X16883Y13897*
X19122*
G75*
G02X19102Y14025I403J128*
G01*
G75*
G02X19948I423*
G01*
G75*
G02X19928Y13897I-423J0*
G01*
X20122*
G75*
G02X20102Y14025I403J128*
G01*
G75*
G02X20948I423*
G01*
G75*
G02X20928Y13897I-423J0*
G01*
X22797*
G37*
X25653D02*
G36*
Y14049D01*
X25945*
Y14072*
X25988*
Y14362*
X24025*
G75*
G02X23862Y14525J163*
G01*
X22700*
Y14455*
X23257Y13897*
X24118*
Y14019*
X24641*
Y13897*
X25653*
G37*
X29362Y14525D02*
G36*
X28219D01*
Y14072*
X28247*
Y13897*
X29362*
Y14525*
G37*
X29862D02*
G36*
X29688D01*
Y13897*
X29862*
Y14525*
G37*
X31240Y13897D02*
G36*
Y14046D01*
X31362*
Y14525*
X30188*
Y13897*
X31240*
G37*
X32362Y14525D02*
G36*
X31688D01*
Y14046*
X31810*
Y13897*
X32362*
Y14525*
G37*
X40362D02*
G36*
X38570D01*
Y14524*
X37213*
Y14525*
X34168*
Y14500*
X32811*
Y14525*
X32688*
Y13897*
X32808*
Y14247*
X33575*
Y13897*
X37209*
Y14282*
X38566*
Y13897*
X40362*
Y14525*
G37*
X40688D02*
G36*
Y13897D01*
X41785*
Y14525*
X40688*
G37*
X14862D02*
G36*
Y14957D01*
X14794Y15025*
X2965*
Y14525*
X11602*
G75*
G02X12448I423*
G01*
X12602*
G75*
G02X13448I423*
G01*
X14862*
G37*
X22374Y15025D02*
G36*
X19948D01*
G75*
G02X19102I-423*
G01*
X18948*
G75*
G02X18102I-423*
G01*
X16188*
Y14593*
X16256Y14525*
X22374*
Y15025*
G37*
X23862D02*
G36*
X22700D01*
Y14525*
X23862*
Y15025*
G37*
X29362D02*
G36*
X28219D01*
Y14525*
X29362*
Y15025*
G37*
X29862D02*
G36*
X29688D01*
Y14525*
X29862*
Y15025*
G37*
X31250D02*
G36*
X30188D01*
Y14525*
X31362*
Y14644*
X31250*
Y15025*
G37*
X32362D02*
G36*
X31800D01*
Y14644*
X31688*
Y14525*
X32362*
Y15025*
G37*
X32811D02*
G36*
X32688D01*
Y14525*
X32811*
Y15025*
G37*
X37213D02*
G36*
X36912D01*
Y14567*
X36264*
Y15025*
X35129*
Y14571*
X34480*
Y15025*
X34168*
Y14525*
X37213*
Y15025*
G37*
X40362D02*
G36*
X38570D01*
Y14525*
X40362*
Y15025*
G37*
X40688D02*
G36*
Y14525D01*
X41785*
Y15025*
X40688*
G37*
X14794D02*
G36*
X14457Y15362D01*
X12415*
G75*
G02X11602Y15525I-390J163*
G01*
G75*
G02Y15529I423J2*
G01*
X11448*
G75*
G02Y15525I-423J-2*
G01*
G75*
G02X10602I-423*
G01*
Y15525*
G75*
G02Y15529I423J2*
G01*
X5597*
Y15346*
X3453*
Y15529*
X2965*
Y15025*
X14794*
G37*
X22235Y15529D02*
G36*
X18412D01*
X18206Y15324*
G75*
G02X18080Y15271I-126J126*
G01*
X16387*
G75*
G02X16261Y15324J179*
G01*
X16056Y15529*
X15752*
X16140Y15140*
G75*
G02X16188Y15025I-115J-115*
G01*
Y15025*
X18102*
G75*
G02X18948I423*
G01*
X19102*
G75*
G02X19948I423*
G01*
X22374*
Y15130*
G75*
G02X22213Y15411I163J280*
G01*
Y15411*
G75*
G02X22235Y15529I324*
G01*
G37*
X23862D02*
G36*
X22839D01*
G75*
G02X22861Y15411I-302J-118*
G01*
Y15411*
G75*
G02X22700Y15130I-324*
G01*
Y15025*
X23862*
Y15529*
G37*
X29362D02*
G36*
X28219D01*
Y15025*
X29362*
Y15529*
G37*
X29862D02*
G36*
X29688D01*
Y15025*
X29862*
Y15529*
G37*
X32362D02*
G36*
X31777D01*
Y15297*
X31273*
Y15529*
X30188*
Y15025*
X31250*
Y15154*
X31800*
Y15025*
X32362*
Y15529*
G37*
X32811Y15025D02*
G36*
Y15148D01*
X33203*
Y15529*
X32688*
Y15025*
X32811*
G37*
X34480Y15529D02*
G36*
X33529D01*
Y15148*
X34168*
Y15025*
X34480*
Y15529*
G37*
X36264D02*
G36*
X35129D01*
Y15025*
X36264*
Y15529*
G37*
X40362D02*
G36*
X36912D01*
Y15025*
X37213*
Y15172*
X38570*
Y15025*
X40362*
Y15529*
G37*
X40688D02*
G36*
Y15025D01*
X41785*
Y15529*
X40688*
G37*
X3453Y16060D02*
G36*
X2965D01*
Y15529*
X3453*
Y16060*
G37*
X10866D02*
G36*
X7931D01*
X7775Y15900*
G75*
G02X7647Y15846I-128J125*
G01*
X5597*
Y15529*
X10602*
G75*
G02X10862Y15915I423J-4*
G01*
Y16025*
G75*
G02X10866Y16060I163*
G01*
G37*
X11602Y15529D02*
G36*
G75*
G02X11770Y15862I423J-4D01*
G01*
X11280*
G75*
G02X11448Y15529I-255J-337*
G01*
X11602*
G37*
X17104Y16060D02*
G36*
X16108D01*
X16199Y15970*
G75*
G02X16251Y15844I-127J-126*
G01*
Y15844*
Y15844*
Y15839*
X16461Y15629*
X17377*
G75*
G02X17102Y16025I147J396*
G01*
Y16025*
G75*
G02X17104Y16060I423J0*
G01*
G37*
X16056Y15529D02*
G36*
X15946Y15639D01*
G75*
G02X15894Y15765I126J127*
G01*
Y15770*
X15603Y16060*
X15220*
X15752Y15529*
X16056*
G37*
X18104Y16060D02*
G36*
X17946D01*
G75*
G02X17948Y16025I-421J-36*
G01*
G75*
G02X17673Y15629I-423*
G01*
X18006*
X18171Y15794*
G75*
G02X18102Y16025I354J231*
G01*
G75*
G02X18104Y16060I423J0*
G01*
G37*
X23862Y15529D02*
G36*
Y16060D01*
X18946*
G75*
G02X18948Y16025I-421J-36*
G01*
G75*
G02X18487Y15604I-423*
G01*
X18412Y15529*
X22235*
G75*
G02X22839I302J-118*
G01*
X23862*
G37*
X26362Y16060D02*
G36*
X25212D01*
Y15692*
X26781*
G75*
G02X26933Y15588J-163*
G01*
Y15862*
X26525*
G75*
G02X26362Y16025J163*
G01*
Y16060*
G37*
X29362D02*
G36*
X28219D01*
Y15529*
X29362*
Y16060*
G37*
X29862D02*
G36*
X29688D01*
Y15529*
X29862*
Y16060*
G37*
X32362D02*
G36*
X30188D01*
Y15529*
X31273*
Y15761*
X31777*
Y15529*
X32362*
Y16060*
G37*
X33203D02*
G36*
X32688D01*
Y15529*
X33203*
Y16060*
G37*
X40362D02*
G36*
X33529D01*
Y15529*
X34480*
Y15928*
X35129*
Y15529*
X36264*
Y15924*
X36912*
Y15529*
X40362*
Y16060*
G37*
X40688D02*
G36*
Y15529D01*
X41785*
Y16060*
X40688*
G37*
X3453D02*
G36*
Y16690D01*
X2965*
Y16060*
X3453*
G37*
X8046Y16690D02*
G36*
X5597D01*
Y16204*
X7572*
X8046Y16690*
G37*
X15220Y16060D02*
G36*
X15603D01*
X15171Y16492*
X8352*
X7931Y16060*
X10866*
G75*
G02X11025Y16188I159J-36*
G01*
X15025*
G75*
G02X15140Y16140I0J-163*
G01*
X15220Y16060*
G37*
X23862Y16690D02*
G36*
X17743D01*
G75*
G02X17307I-218J335*
G01*
X16783*
G75*
G02X16267I-258J335*
G01*
X15479*
X16108Y16060*
X17104*
G75*
G02X17946I421J-35*
G01*
X18104*
G75*
G02X18946I421J-35*
G01*
X23862*
Y16690*
G37*
X26362D02*
G36*
X25212D01*
Y16060*
X26362*
Y16690*
G37*
X29362D02*
G36*
X28219D01*
Y16060*
X29362*
Y16690*
G37*
X29862D02*
G36*
X29688D01*
Y16060*
X29862*
Y16690*
G37*
X32362D02*
G36*
X30188D01*
Y16060*
X32362*
Y16690*
G37*
X33150D02*
G36*
X32688D01*
Y16060*
X33203*
Y16425*
X33150*
Y16690*
G37*
X40362D02*
G36*
X35822D01*
Y16409*
X35436*
Y16690*
X35235*
Y16386*
X34803*
Y16547*
X34192*
Y16425*
X33760*
Y16690*
X33581*
Y16425*
X33529*
Y16060*
X40362*
Y16690*
G37*
X40688D02*
G36*
Y16060D01*
X41785*
Y16690*
X40688*
G37*
X16102Y17025D02*
G36*
X2965D01*
Y16690*
X3453*
Y16704*
X5597*
Y16690*
X8046*
X8149Y16795*
G75*
G02X8277Y16849I128J-125*
G01*
X15245*
G75*
G02X15372Y16797I0J-179*
G01*
X15479Y16690*
X16267*
G75*
G02X16102Y17025I258J335*
G01*
G37*
X17125D02*
G36*
X16948D01*
G75*
G02X16783Y16690I-423*
G01*
X17307*
G75*
G02X17125Y17025I218J335*
G01*
G37*
X23862Y16690D02*
G36*
Y17025D01*
X17925*
G75*
G02X17743Y16690I-400*
G01*
X23862*
G37*
X26362Y17025D02*
G36*
X25191D01*
G75*
G02X25212Y16946I-143J-79*
G01*
Y16690*
X26362*
Y17025*
G37*
X29362D02*
G36*
X28219D01*
Y16690*
X29362*
Y17025*
G37*
X29862D02*
G36*
X29688D01*
Y16690*
X29862*
Y17025*
G37*
X32362D02*
G36*
X30188D01*
Y16690*
X32362*
Y17025*
G37*
X40362D02*
G36*
X32688D01*
Y16690*
X33150*
Y16995*
X33581*
Y16690*
X33760*
Y16995*
X34192*
Y16873*
X34803*
Y16956*
X35235*
Y16690*
X35436*
Y16932*
X35822*
Y16690*
X40362*
Y17025*
G37*
X40688D02*
G36*
Y16690D01*
X41785*
Y17025*
X40688*
G37*
X16102D02*
G36*
Y17025D01*
G75*
G02X16194Y17287I422*
G01*
X16159Y17253*
G75*
G02X16033Y17201I-127J126*
G01*
X7411*
G75*
G02X7284Y17253J179*
G01*
X6706Y17831*
X5597Y17839*
Y17346*
X3453*
Y18025*
X2965*
Y17025*
X16102*
G37*
Y18025D02*
G36*
X15948D01*
G75*
G02X15102I-423*
G01*
X7018*
X7485Y17558*
X15959*
X16181Y17780*
G75*
G02X16102Y18025I344J245*
G01*
Y18025*
G37*
X23862Y17025D02*
G36*
Y17135D01*
G75*
G02X23602Y17525I163J390*
G01*
Y17525*
G75*
G02X24362Y17780I423*
G01*
Y18025*
X16948*
G75*
G02X16509Y17603I-423J0*
G01*
X16263Y17356*
G75*
G02X16948Y17025I262J-331*
G01*
X17125*
G75*
G02X17925I400*
G01*
X23862*
G37*
X26362D02*
G36*
Y17310D01*
G75*
G02X25625Y17525I-337J215*
G01*
G75*
G02X26362Y17740I400*
G01*
Y18025*
X24688*
Y17780*
G75*
G02X25448Y17525I337J-255*
G01*
Y17525*
Y17525*
G75*
G02X25188Y17135I-423*
G01*
Y17031*
G75*
G02X25191Y17025I-140J-85*
G01*
X26362*
G37*
X29362Y18025D02*
G36*
X27688D01*
Y17780*
G75*
G02X28448Y17525I337J-255*
G01*
Y17525*
Y17525*
G75*
G02X28219Y17150I-423*
G01*
Y17025*
X29362*
Y18025*
G37*
X29862D02*
G36*
X29688D01*
Y17025*
X29862*
Y18025*
G37*
X31629D02*
G36*
X30188D01*
Y17025*
X32362*
Y17862*
X31860*
G75*
G02X31745Y17910I0J163*
G01*
X31629Y18025*
G37*
X40295D02*
G36*
X32688D01*
Y17025*
X40362*
Y17958*
X40295Y18025*
G37*
X40688D02*
G36*
Y17025D01*
X41785*
Y18025*
X40688*
G37*
X29362D02*
G36*
Y18457D01*
X28794Y19025*
X15948*
G75*
G02X15102I-423*
G01*
X14948*
G75*
G02X14102I-423*
G01*
X2965*
Y18025*
X3453*
Y18704*
X5597*
Y18196*
X6782Y18188*
G75*
G02X6908Y18135I-1J-179*
G01*
X7018Y18025*
X15102*
G75*
G02X15948I423*
G01*
X16102*
G75*
G02X16948I423*
G01*
X24362*
Y18270*
G75*
G02X23602Y18525I-337J255*
G01*
Y18525*
G75*
G02X24427Y18655I423*
G01*
G75*
G02X24525Y18688I98J-130*
G01*
X24635*
G75*
G02X25448Y18525I390J-163*
G01*
Y18525*
G75*
G02X24688Y18270I-423*
G01*
Y18025*
X26362*
Y18270*
G75*
G02X25602Y18525I-337J255*
G01*
Y18525*
G75*
G02X26427Y18655I423*
G01*
G75*
G02X26525Y18688I98J-130*
G01*
X26635*
G75*
G02X27427Y18655I390J-163*
G01*
G75*
G02X27525Y18688I98J-130*
G01*
X27635*
G75*
G02X28448Y18525I390J-163*
G01*
Y18525*
G75*
G02X27688Y18270I-423*
G01*
Y18025*
X29362*
G37*
X29794Y19025D02*
G36*
X29256D01*
X29640Y18640*
G75*
G02X29688Y18525I-115J-115*
G01*
Y18525*
Y18025*
X29862*
Y18957*
X29794Y19025*
G37*
X31629Y18025D02*
G36*
X30866Y18789D01*
G75*
G02X30524Y19025I-30J323*
G01*
X30188*
Y18025*
X31629*
G37*
X32771Y19025D02*
G36*
X31148D01*
G75*
G02X31133Y18982I-312J87*
G01*
X31927Y18188*
X32362*
Y18549*
G75*
G02X32410Y18664I163J0*
G01*
X32771Y19025*
G37*
X40295Y18025D02*
G36*
X39458Y18862D01*
X38407*
G75*
G02X37594Y19025I-390J163*
G01*
X37433*
G75*
G02X36633I-400*
G01*
X34917*
G75*
G02X34117I-400*
G01*
X33956*
G75*
G02X33143Y18862I-423*
G01*
X33069*
X32688Y18481*
Y18025*
X40295*
G37*
X40688D02*
G36*
X41785D01*
Y19025*
X39755*
X40640Y18140*
G75*
G02X40688Y18025I-115J-115*
G01*
G37*
X15794Y20525D02*
G36*
X4566D01*
G75*
G02X3484I-541*
G01*
X2965*
Y19025*
X14102*
G75*
G02X14685Y19416I423*
G01*
X15794Y20525*
G37*
X16794D02*
G36*
X16256D01*
X14916Y19185*
G75*
G02X14948Y19025I-391J-161*
G01*
X15102*
G75*
G02X15685Y19416I423*
G01*
X16794Y20525*
G37*
X28794Y19025D02*
G36*
X27457Y20362D01*
X17093*
X15916Y19185*
G75*
G02X15948Y19025I-391J-161*
G01*
X28794*
G37*
X29794D02*
G36*
X28294Y20525D01*
X27756*
X29256Y19025*
X29794*
G37*
X39755D02*
G36*
X41785D01*
Y20525*
X41566*
G75*
G02X40484I-541*
G01*
X28756*
X30140Y19140*
G75*
G02X30188Y19025I-115J-115*
G01*
Y19025*
X30524*
G75*
G02X30512Y19112I312J87*
G01*
G75*
G02X31160I324*
G01*
Y19112*
G75*
G02X31148Y19025I-324*
G01*
X32771*
X32886Y19140*
G75*
G02X33002Y19188I115J-115*
G01*
X33143*
G75*
G02X33956Y19025I390J-163*
G01*
X34117*
G75*
G02X34917I400*
G01*
X36633*
G75*
G02X37433I400*
G01*
X37594*
G75*
G02X38407Y19188I423*
G01*
X39525*
G75*
G02X39640Y19140I0J-163*
G01*
X39755Y19025*
G37*
X28756Y20525D02*
G36*
X40484D01*
G75*
G02X41566I541*
G01*
X41785*
Y21443*
X2965*
Y20525*
X3484*
G75*
G02X4566I541*
G01*
X15794*
X16410Y21140*
G75*
G02X16525Y21188I115J-115*
G01*
X28025*
G75*
G02X28140Y21140I0J-163*
G01*
X28756Y20525*
G37*
X28294D02*
G36*
X27957Y20862D01*
X16593*
X16256Y20525*
X16794*
X16910Y20640*
G75*
G02X17025Y20688I115J-115*
G01*
X27525*
G75*
G02X27640Y20640I0J-163*
G01*
X27756Y20525*
X28294*
G37*
D02*
D16*
X28525Y5525D02*
Y5541D01*
X29025Y6041*
X29576*
X30482Y6946*
Y7852*
X31875Y9245*
X30482Y11346D02*
X30777D01*
X31096Y11027*
Y9728*
X31578Y9245*
X31875*
X39419Y12970D02*
X37887D01*
D02*
D70*
X10210Y9025D02*
X10125D01*
X10525Y8710D02*
Y8625D01*
Y9340D02*
Y9425D01*
X10840Y9025D02*
X10925D01*
X13710Y13525D02*
X13625D01*
X14025Y13210D02*
Y13125D01*
Y13840D02*
Y13925D01*
X14340Y13525D02*
X14425D01*
X17210Y17025D02*
X17125D01*
X17525Y16710D02*
Y16625D01*
Y17340D02*
Y17425D01*
X17840Y17025D02*
X17925D01*
X21210Y4525D02*
X21125D01*
X21525Y4210D02*
Y4125D01*
Y4840D02*
Y4925D01*
X21840Y4525D02*
X21925D01*
X24202Y13826D02*
X24118D01*
X24379Y13718D02*
Y13633D01*
Y13934D02*
Y14019D01*
X24556Y13826D02*
X24641D01*
X25738Y13694D02*
X25653D01*
X25803Y17303D02*
X25742Y17242D01*
X25803Y17747D02*
X25742Y17808D01*
X25836Y13423D02*
Y13338D01*
Y13964D02*
Y14049D01*
X26247Y17303D02*
X26308Y17242D01*
X26247Y17747D02*
X26308Y17808D01*
X27037Y9230D02*
X26952D01*
X27145Y9053D02*
Y8968D01*
Y9407D02*
Y9492D01*
X27253Y9230D02*
X27338D01*
X28041Y10086D02*
Y10001D01*
Y10627D02*
Y10712D01*
X28139Y10356D02*
X28224D01*
X29561Y7245D02*
X29476D01*
X29875Y6931D02*
Y6846D01*
Y7560D02*
Y7645D01*
X30190Y7245D02*
X30275D01*
X30305Y10736D02*
X30220D01*
X30368Y12728D02*
X30289Y12649D01*
X30368Y12956D02*
X30289Y13035D01*
X30482Y10628D02*
Y10543D01*
Y10844D02*
Y10929D01*
X30596Y12728D02*
X30675Y12649D01*
X30596Y12956D02*
X30675Y13035D01*
X30659Y10736D02*
X30744D01*
X31358Y15529D02*
X31273D01*
X31525Y15382D02*
Y15297D01*
Y15676D02*
Y15761D01*
X31692Y15529D02*
X31777D01*
X31848Y10720D02*
X31763D01*
X32025Y10612D02*
Y10527D01*
Y10828D02*
Y10913D01*
X32202Y10720D02*
X32287D01*
X34202Y19025D02*
X34117D01*
X34303Y6303D02*
X34242Y6242D01*
X34303Y6747D02*
X34242Y6808D01*
X34517Y18710D02*
Y18625D01*
Y19340D02*
Y19425D01*
X34747Y6303D02*
X34808Y6242D01*
X34747Y6747D02*
X34808Y6808D01*
X34832Y19025D02*
X34917D01*
X35023Y8289D02*
X34944Y8210D01*
X35023Y8517D02*
X34944Y8596D01*
X35251Y8289D02*
X35330Y8210D01*
X35251Y8517D02*
X35330Y8596D01*
X35521Y16671D02*
X35436D01*
X35629Y16494D02*
Y16409D01*
Y16848D02*
Y16932D01*
X35737Y16671D02*
X35822D01*
X36718Y19025D02*
X36633D01*
X37033Y18710D02*
Y18625D01*
Y19340D02*
Y19425D01*
X37348Y19025D02*
X37433D01*
X39565Y8565D02*
X39505Y8505D01*
X39565Y10485D02*
X39505Y10545D01*
X41485Y8565D02*
X41545Y8505D01*
X41485Y10485D02*
X41545Y10545D01*
D02*
D71*
X4525Y6525D03*
Y8525D03*
Y11525D03*
Y13525D03*
Y16025D03*
Y18025D03*
D02*
D20*
X4025Y3025D03*
Y20525D03*
X40525Y3025D03*
X41025Y20525D03*
D02*
D21*
X26348Y11946D03*
Y12694D03*
X26387Y11159D03*
X26978D03*
Y11946D03*
Y12694D03*
X27568Y11159D03*
Y11946D03*
Y12694D03*
X34812Y13049D03*
Y13797D03*
X34852Y12261D03*
X35442D03*
Y13049D03*
Y13797D03*
X36033Y12261D03*
Y13049D03*
Y13797D03*
D02*
D22*
X25270Y10923D03*
Y11238D03*
Y11553D03*
Y11868D03*
Y12182D03*
Y12497D03*
Y12812D03*
Y13127D03*
X28607Y10923D03*
Y11238D03*
Y11553D03*
Y11868D03*
Y12182D03*
Y12497D03*
Y12812D03*
Y13127D03*
D02*
D23*
X25836Y10356D03*
Y13694D03*
X26151Y10356D03*
Y13694D03*
X26466Y10356D03*
Y13694D03*
X26781Y10356D03*
Y13694D03*
X27096Y10356D03*
Y13694D03*
X27411Y10356D03*
Y13694D03*
X27726Y10356D03*
Y13694D03*
X28041Y10356D03*
Y13694D03*
D02*
D24*
X24379Y13216D03*
Y13826D03*
X30482Y10736D03*
Y11346D03*
Y12232D03*
Y12842D03*
X31525Y13220D03*
Y13830D03*
X32025Y10720D03*
Y11330D03*
D02*
D25*
X27145Y9230D03*
X27755D03*
X33366Y16710D03*
X33976D03*
X34220Y9525D03*
X34830D03*
X35019Y16671D03*
X35137Y8403D03*
X35629Y16671D03*
X35747Y8403D03*
D02*
D26*
X31525Y14899D03*
Y15529D03*
D02*
D27*
X33482Y13021D03*
X33486Y11230D03*
X33490Y14824D03*
X37887Y13060D03*
Y13958D03*
X37891Y11265D03*
Y14848D03*
D02*
D28*
X33191Y13923D03*
D02*
D29*
X34801Y10836D03*
X34805Y15249D03*
X35686Y15245D03*
X35698Y10844D03*
X36588Y15245D03*
X36592Y10840D03*
D02*
D72*
X35242Y11241D03*
X37041Y11242D03*
D02*
D73*
X33892Y11693D03*
D02*
D74*
X9525Y10025D02*
Y10009D01*
X8041Y8525*
X4525*
X11525Y8025D02*
Y7923D01*
X10127Y6525*
X4525*
X12525Y7025D02*
Y6934D01*
X13434Y6025*
X19525*
Y6119*
X19931Y6525*
X23198*
Y11868*
X25270*
X13025Y14525D02*
Y14332D01*
X12568Y13875*
X6466*
X6151Y13560*
Y13525*
X4525*
X13525Y7025D02*
X22525D01*
Y12182*
X25270*
X14525Y19025D02*
X16525Y21025D01*
X28025*
X30025Y19025*
Y12497*
X28607*
X15025Y12525D02*
Y12395D01*
X14576Y11946*
X12253*
Y12261*
X11584Y12931*
X7411*
X6033Y11553*
Y11525*
X4525*
X15525Y19025D02*
X17025Y20525D01*
X27525*
X29525Y18525*
Y12812*
X28607*
X16525Y18025D02*
Y17871D01*
X16033Y17379*
X7411*
X6781Y18009*
Y18025*
X4525*
X18525Y16025D02*
Y15895D01*
X18080Y15450*
X16387*
X16072Y15765*
Y15844*
X15245Y16671*
X8277*
Y16655*
X7647Y16025*
X4525*
X23789Y11198D02*
X24143Y11553D01*
X25270*
X24525Y5525D02*
Y11238D01*
X25270*
X25025Y17525D02*
Y16946D01*
X25049*
Y15529*
X26781*
Y13694*
X25270Y12497D02*
Y12525D01*
X17025*
X15025Y14525*
Y15025*
X14525Y15525*
X12025*
X25270Y12812D02*
X17738D01*
X16025Y14525*
Y15025*
X15025Y16025*
X11025*
Y15525*
X25525Y5525D02*
Y9348D01*
X25348Y9525*
X25270*
Y10923*
X26151Y13694D02*
Y14525D01*
X24025*
Y17525*
X26466Y13694D02*
Y15025D01*
X24497*
Y16525*
X24525*
Y18525*
X25025*
X27096Y13694D02*
Y16025D01*
X26525*
Y18525*
X27025*
X27411Y13694D02*
Y16525D01*
X27025*
Y17525*
X27726Y13694D02*
Y17025D01*
X27525*
Y18525*
X28025*
X27755Y9230D02*
X27726D01*
Y10356*
X28041Y13694D02*
Y17525D01*
X28025*
X30482Y11346D02*
Y11356D01*
X29970Y11868*
X28607*
X31525Y14899D02*
Y13830D01*
X33490Y14824D02*
X33366D01*
Y16710*
X33976D02*
X35019D01*
Y16671*
X35525Y6525D02*
Y7025D01*
X33525*
Y9525*
X34220*
X37887Y12970D02*
Y13060D01*
D02*
D75*
X28607Y11238D02*
X29340D01*
X29301Y7773*
X26820*
X26033Y6986*
Y5017*
X23986*
X23525Y5478*
Y5525*
D02*
D76*
X32525Y13021D02*
X33482D01*
X34830Y9525D02*
X36592D01*
Y10840*
X35747Y8403D02*
Y8954D01*
X34830*
Y9525*
X35747Y8403D02*
X35952D01*
X36830Y7525*
X40078*
X40525Y7078*
Y6025*
D02*
D77*
X22537Y15411D02*
Y14387D01*
X23708Y13216*
X24379*
X25270Y13127D02*
X24379D01*
Y13216*
X30482Y12232D02*
Y12182D01*
X28607*
X30836Y19112D02*
Y19049D01*
X31860Y18025*
X32525*
X31525Y11330D02*
Y10175D01*
X32568*
X32490Y3797*
Y3525*
X32411Y3600*
Y3525*
X32490*
Y3560*
X31525Y3525*
X21179*
X20679Y4025*
Y4698*
X21505Y5525*
X21525*
X31525Y13220D02*
Y11330D01*
X32025D02*
X31525D01*
X32525Y13021D02*
Y11693D01*
X33892*
X32525Y13220D02*
Y18025D01*
Y18549*
X33001Y19025*
X33533*
X33486Y11230D02*
Y11330D01*
X32025*
X37891Y11265D02*
X39765D01*
X40525Y12025*
Y18025*
X39525Y19025*
X38017*
D02*
D78*
X23789Y11198D03*
X39419Y12970D03*
D02*
D79*
X22537Y15411D03*
X30836Y19112D03*
D02*
D80*
X31525Y13220D02*
X30954D01*
Y12232*
X30482*
X31525Y13220D02*
X32525D01*
Y13021D02*
Y13220D01*
X0Y0D02*
M02*
