G04 EasyPC Gerber Version 21.0.3 Build 4286 *
G04 #@! TF.Part,Single*
G04 #@! TF.FileFunction,Soldermask,Top *
G04 #@! TF.FilePolarity,Negative *
%FSLAX24Y24*%
%MOIN*%
G04 #@! TA.AperFunction,SMDPad*
%ADD85R,0.03362X0.06807*%
%ADD88R,0.03559X0.04937*%
%ADD93R,0.05724X0.12811*%
%ADD95R,0.07969X0.17024*%
G04 #@! TA.AperFunction,WasherPad*
%ADD83C,0.03362*%
G04 #@! TA.AperFunction,ComponentPad*
%ADD86C,0.07693*%
G04 #@! TA.AperFunction,WasherPad*
%ADD82C,0.10055*%
G04 #@! TA.AperFunction,SMDPad*
%ADD84R,0.06807X0.03362*%
%ADD87R,0.04937X0.03559*%
%ADD90R,0.04740X0.04346*%
%ADD92R,0.06906X0.05724*%
%ADD91R,0.12811X0.05724*%
%ADD94R,0.17024X0.07969*%
G04 #@! TA.AperFunction,WasherPad*
%ADD81R,0.19686X0.11812*%
G04 #@! TA.AperFunction,ComponentPad*
%ADD89C,0.28559*%
X0Y0D02*
D02*
D81*
X4525Y6525D03*
Y8525D03*
Y11525D03*
Y13525D03*
Y16025D03*
Y18025D03*
D02*
D82*
X4025Y3025D03*
Y20525D03*
X40525Y3025D03*
X41025Y20525D03*
D02*
D83*
X26348Y11946D03*
Y12694D03*
X26387Y11159D03*
X26978D03*
Y11946D03*
Y12694D03*
X27568Y11159D03*
Y11946D03*
Y12694D03*
X34812Y13049D03*
Y13797D03*
X34852Y12261D03*
X35442D03*
Y13049D03*
Y13797D03*
X36033Y12261D03*
Y13049D03*
Y13797D03*
D02*
D84*
X25270Y10923D03*
Y11238D03*
Y11553D03*
Y11868D03*
Y12182D03*
Y12497D03*
Y12812D03*
Y13127D03*
X28607Y10923D03*
Y11238D03*
Y11553D03*
Y11868D03*
Y12182D03*
Y12497D03*
Y12812D03*
Y13127D03*
D02*
D85*
X25836Y10356D03*
Y13694D03*
X26151Y10356D03*
Y13694D03*
X26466Y10356D03*
Y13694D03*
X26781Y10356D03*
Y13694D03*
X27096Y10356D03*
Y13694D03*
X27411Y10356D03*
Y13694D03*
X27726Y10356D03*
Y13694D03*
X28041Y10356D03*
Y13694D03*
D02*
D86*
X7525Y12025D03*
X8525Y11025D03*
Y12025D03*
X9525Y10025D03*
Y11025D03*
X10525Y9025D03*
Y10025D03*
X11025Y15525D03*
X11525Y8025D03*
Y9025D03*
X12025Y14525D03*
Y15525D03*
X12525Y7025D03*
Y8025D03*
X13025Y13525D03*
Y14525D03*
X13525Y7025D03*
X14025Y12525D03*
Y13525D03*
X14525Y19025D03*
X15025Y11525D03*
Y12525D03*
X15525Y18025D03*
Y19025D03*
X16025Y10525D03*
Y11525D03*
X16525Y17025D03*
Y18025D03*
X17025Y10525D03*
X17525Y16025D03*
Y17025D03*
X18525Y15025D03*
Y16025D03*
X19525Y14025D03*
Y15025D03*
X20525Y14025D03*
X21525Y4525D03*
Y5525D03*
X22525Y4525D03*
Y5525D03*
X23525Y4525D03*
Y5525D03*
X24025Y17525D03*
Y18525D03*
X24525Y4525D03*
Y5525D03*
X25025Y17525D03*
Y18525D03*
X25525Y4525D03*
Y5525D03*
X26025Y17525D03*
Y18525D03*
X26525Y4525D03*
Y5525D03*
X27025Y17525D03*
Y18525D03*
X27525Y4525D03*
Y5525D03*
X28025Y17525D03*
Y18525D03*
X28525Y4525D03*
Y5525D03*
X29525Y4525D03*
Y5525D03*
X29875Y7245D03*
Y9245D03*
X30525Y4525D03*
Y5525D03*
X31875Y7245D03*
Y9245D03*
X33525Y6525D03*
X33533Y19025D03*
X34517D03*
X34525Y6525D03*
X35525D03*
X36525D03*
X37033Y19025D03*
X37525Y6525D03*
X38017Y19025D03*
D02*
D87*
X24379Y13216D03*
Y13826D03*
X30482Y10736D03*
Y11346D03*
Y12232D03*
Y12842D03*
X31525Y13220D03*
Y13830D03*
X32025Y10720D03*
Y11330D03*
D02*
D88*
X27145Y9230D03*
X27755D03*
X33366Y16710D03*
X33976D03*
X34220Y9525D03*
X34830D03*
X35019Y16671D03*
X35137Y8403D03*
X35629Y16671D03*
X35747Y8403D03*
D02*
D89*
X40525Y6025D03*
Y9525D03*
D02*
D90*
X31525Y14899D03*
Y15529D03*
D02*
D91*
X33482Y13021D03*
X33486Y11230D03*
X33490Y14824D03*
X37887Y13060D03*
Y13958D03*
X37891Y11265D03*
Y14848D03*
D02*
D92*
X33191Y13923D03*
D02*
D93*
X34801Y10836D03*
X34805Y15249D03*
X35686Y15245D03*
X35698Y10844D03*
X36588Y15245D03*
X36592Y10840D03*
D02*
D94*
X35242Y11241D03*
X37041Y11242D03*
D02*
D95*
X33892Y11693D03*
X0Y0D02*
M02*
